<svg version="1.1" id="Layer_1" xmlns="http://www.w3.org/2000/svg" xmlns:xlink="http://www.w3.org/1999/xlink" x="0px" y="0px"
	 width="100%" viewBox="0 0 1170 156" enable-background="new 0 0 1170 156" xml:space="preserve">
<path fill="#000000" opacity="1.000000" stroke="none" 
	d="
M1108.000000,157.000000 
	C738.666687,157.000000 369.833344,157.000000 1.000000,157.000000 
	C1.000000,105.000000 1.000000,53.000000 1.000000,1.000000 
	C391.000000,1.000000 781.000000,1.000000 1171.000000,1.000000 
	C1171.000000,53.000000 1171.000000,105.000000 1171.000000,157.000000 
	C1150.166626,157.000000 1129.333374,157.000000 1108.000000,157.000000 
M745.107727,107.469337 
	C745.448364,107.600548 745.789001,107.731758 746.004883,108.000801 
	C746.004883,108.000801 746.133484,107.863831 746.038696,108.586426 
	C747.648499,110.380333 748.996765,112.541603 750.912537,113.905823 
	C760.190430,120.512581 770.550781,122.063690 781.820923,121.149529 
	C793.023865,120.240837 801.364746,115.598503 807.710754,106.197495 
	C809.450195,108.132423 811.189575,110.067352 813.008240,112.733200 
	C815.880249,124.056496 841.274414,124.752075 847.540039,113.340637 
	C851.599731,121.629410 864.756836,123.741348 875.007935,119.132622 
	C875.007935,117.399811 874.872620,115.567490 875.044739,113.764519 
	C875.229187,111.832664 875.703064,109.928436 876.714294,108.200287 
	C877.864014,109.439331 879.013733,110.678383 880.123230,112.499252 
	C880.458313,112.617653 880.793396,112.736053 881.016174,113.002495 
	C881.016174,113.002495 881.139526,112.862221 881.041138,113.586273 
	C884.321228,120.695610 891.199951,121.885437 897.471252,121.663551 
	C903.466919,121.451416 910.205750,120.175751 913.688232,113.010101 
	C914.099243,113.046799 914.510193,113.083504 914.997559,113.966179 
	C915.449402,116.132011 913.664368,119.676651 917.548279,119.862350 
	C924.586975,120.198906 931.653381,119.957726 939.051331,119.957726 
	C939.051331,114.903297 939.051331,110.455345 939.715393,106.184372 
	C941.525757,107.436317 943.336182,108.688263 944.882812,110.595886 
	C943.095337,113.585175 945.740601,114.063400 947.426331,115.080765 
	C958.433105,121.723518 970.613098,122.845436 982.742676,120.727356 
	C993.355530,118.874130 1001.609741,113.077942 1001.713074,101.181618 
	C1003.451782,103.178665 1005.190491,105.175705 1006.959106,107.800858 
	C1007.351746,108.160370 1007.744324,108.519890 1008.012573,108.991089 
	C1008.012573,108.991089 1008.117126,108.860779 1008.159973,109.568176 
	C1009.768860,111.376205 1011.144043,113.486702 1013.026184,114.941200 
	C1022.376099,122.166763 1033.365234,122.784935 1044.157349,120.622353 
	C1052.463867,118.957855 1060.854614,115.709526 1063.006958,104.783821 
	C1060.618530,104.156395 1058.326904,103.554375 1056.190308,102.278290 
	C1056.793701,100.870163 1057.397217,99.462044 1058.887939,97.990784 
	C1060.482178,97.990784 1062.076416,97.990784 1063.976196,97.990784 
	C1063.976196,93.747765 1064.435913,90.029922 1063.868896,86.475868 
	C1063.008667,81.083054 1062.038208,75.505989 1057.000000,72.007477 
	C1057.000000,72.007477 1056.875854,72.093552 1056.923706,71.555496 
	C1056.648804,71.340225 1056.373901,71.124954 1055.812866,70.264435 
	C1050.069092,59.154305 1039.487671,56.293201 1028.590576,56.275463 
	C1017.333435,56.257137 1006.944092,60.042503 1000.238892,70.732925 
	C998.441162,69.471031 996.643433,68.209129 995.156372,66.302414 
	C995.217407,65.490608 995.622009,64.182365 995.283386,63.948017 
	C993.191467,62.500282 991.067932,60.907021 988.703857,60.078438 
	C980.630859,57.248997 972.438110,55.966309 963.703979,56.794117 
	C957.012695,57.428295 951.196655,59.400993 945.778320,63.034229 
	C938.762451,67.738670 936.673523,83.339500 946.169434,89.537949 
	C946.496094,90.385719 946.822815,91.233498 946.830444,92.714844 
	C944.237427,96.474106 941.644409,100.233360 938.996277,103.056938 
	C938.996277,90.457764 938.996277,77.858582 938.996277,64.959961 
	C937.026489,64.959961 935.546326,64.959961 934.005127,64.057800 
	C934.005127,62.122948 934.005127,60.188095 934.005127,58.235191 
	C925.116333,58.235191 916.717346,58.235191 907.999512,58.235191 
	C907.999512,67.744720 908.209473,77.030052 907.864502,86.294716 
	C907.767883,88.889725 906.036743,91.423874 905.006409,93.050751 
	C905.006409,83.805344 905.006409,74.559937 905.006409,64.925041 
	C902.722717,64.925041 900.925476,64.925041 899.009460,64.032303 
	C899.009460,62.103840 899.009460,60.175381 899.009460,58.214165 
	C890.128113,58.214165 881.744690,58.214165 872.999573,58.214165 
	C872.999573,66.842369 872.745911,75.270729 873.075623,83.676201 
	C873.367371,91.115265 874.308350,98.528854 874.217712,105.997231 
	C872.833740,105.638512 871.449768,105.279793 869.981201,104.162666 
	C870.012939,102.404587 870.044678,100.646507 870.008728,97.969414 
	C870.004211,93.538406 870.214783,89.094101 869.941772,84.679695 
	C869.586609,78.938042 868.240967,73.504341 862.784119,69.280258 
	C860.424683,63.427105 855.902283,59.676823 849.971924,58.623047 
	C843.414795,57.457920 836.651306,57.217274 829.966553,57.065384 
	C821.112976,56.864231 814.179138,60.814499 809.000793,67.205574 
	C806.961914,63.498604 804.923035,59.791634 802.986572,55.992805 
	C802.986572,55.992805 802.892700,56.090317 802.925415,55.538494 
	C802.634705,55.333813 802.343933,55.129128 801.739441,54.291679 
	C799.380066,51.516495 797.359131,48.332439 794.595947,46.045094 
	C787.188843,39.913551 778.233459,38.924835 768.955811,38.951881 
	C751.732849,39.002098 738.296204,47.677525 734.428162,65.189697 
	C731.118958,80.171753 732.810608,94.230156 744.112549,106.406006 
	C744.452393,106.558968 744.792236,106.711937 745.002441,106.998779 
	C745.002441,106.998779 745.138550,106.871193 745.107727,107.469337 
M135.506531,34.000000 
	C131.083038,34.000000 126.659546,34.000000 121.725967,34.000000 
	C121.725967,39.419098 121.725967,44.148643 121.725967,49.201496 
	C116.595398,49.201496 111.989517,49.201496 107.325287,49.201496 
	C107.325287,59.604458 107.325287,69.655701 107.325287,80.227707 
	C112.036942,80.227707 116.433533,80.227707 121.155945,80.227707 
	C121.155945,85.357880 121.155945,89.966957 121.155945,95.083458 
	C126.550728,95.083458 131.617386,95.083458 137.186920,95.083458 
	C137.186920,100.328751 137.186920,105.057892 137.186920,110.114967 
	C141.982376,110.114967 146.258377,110.114967 151.042877,110.114967 
	C151.042877,114.842354 151.042877,119.247040 151.042877,123.664780 
	C156.625824,123.664780 161.679901,123.664780 167.251282,123.664780 
	C167.251282,118.937813 167.251282,114.543549 167.251282,109.821739 
	C172.380676,109.821739 176.987656,109.821739 182.105942,109.821739 
	C182.105942,104.758575 182.105942,100.023987 182.105942,94.790985 
	C187.353027,94.790985 192.081497,94.790985 197.136932,94.790985 
	C197.136932,89.662445 197.136932,85.053398 197.136932,79.934174 
	C202.197678,79.934174 206.934296,79.934174 211.656616,79.934174 
	C211.656616,69.352356 211.656616,59.300846 211.656616,48.732265 
	C206.588409,48.732265 201.858826,48.732265 196.805847,48.732265 
	C196.805847,43.602348 196.805847,38.996391 196.805847,34.320404 
	C186.403488,34.320404 176.352386,34.320404 165.781403,34.320404 
	C165.781403,39.362984 165.781403,44.091667 165.781403,48.752426 
	C160.982925,48.752426 156.711594,48.752426 151.924728,48.752426 
	C151.924728,43.789764 151.924728,39.053951 151.924728,34.000000 
	C146.437592,34.000000 141.469574,34.000000 135.506531,34.000000 
M422.995331,105.329094 
	C422.995331,107.773239 422.995331,110.217384 422.995331,112.782974 
	C431.161285,112.782974 438.901672,112.782974 446.800262,112.782974 
	C446.800262,87.175110 446.800262,61.784473 446.800262,36.197021 
	C438.200256,36.197021 429.799988,36.197021 421.016846,36.197021 
	C421.016846,45.754547 421.016846,55.126019 421.016846,65.109222 
	C413.212463,52.439674 394.694092,55.023849 389.234222,65.164818 
	C382.824921,77.069267 382.440491,89.174950 386.969635,101.607109 
	C390.873749,112.323608 398.681458,114.724556 408.598755,114.144943 
	C415.635376,113.733688 419.222321,109.301819 422.995331,105.329094 
M313.587616,97.929878 
	C314.498016,95.552490 315.408386,93.175102 316.416779,90.541794 
	C308.148041,88.451653 300.306213,86.469437 292.272980,84.438828 
	C291.867920,90.098122 289.882507,93.491760 284.758972,93.978798 
	C277.259521,94.691696 274.359558,93.393623 273.128723,86.786423 
	C272.003723,80.747154 271.694458,74.299263 272.499512,68.226852 
	C273.363251,61.712158 277.621094,58.818531 283.059601,59.000053 
	C288.407074,59.178543 291.229340,62.435333 292.531158,69.976646 
	C293.016876,69.976646 293.566895,70.119362 294.000061,69.954689 
	C298.635254,68.192543 303.289215,66.471115 307.865631,64.564743 
	C315.990936,61.180023 316.855286,58.234795 311.507996,51.106747 
	C309.755127,48.770145 307.409027,46.752979 305.007294,45.051071 
	C295.942596,38.627640 285.359680,37.943470 275.038757,39.206440 
	C260.555969,40.978695 250.761154,48.152706 246.507477,62.438732 
	C244.593185,68.867950 244.764420,76.149261 245.146103,82.979309 
	C245.793488,94.564102 250.697464,103.996826 261.384308,109.806641 
	C271.107849,115.092781 281.601074,115.331429 291.996155,113.804131 
	C301.313416,112.435188 308.837158,107.456902 313.587616,97.929878 
M636.393799,112.106361 
	C639.636963,109.915588 643.191711,108.068329 646.061462,105.465820 
	C653.032288,99.144150 653.268250,90.668884 653.058716,82.003342 
	C652.802246,71.397728 646.215637,62.605644 636.058289,58.886032 
	C628.992737,56.298615 621.810425,55.913792 614.712708,57.162270 
	C607.760925,58.385067 601.344910,61.076626 596.849182,67.408195 
	C590.937134,75.734406 589.786133,84.783508 592.197083,94.192680 
	C594.739929,104.116295 601.378845,110.330116 611.491272,113.089996 
	C619.746643,115.343063 627.746216,114.550682 636.393799,112.106361 
M369.910492,62.386066 
	C357.753113,54.838982 345.112152,54.809631 332.166870,60.019855 
	C322.270844,64.002808 315.439545,80.047615 318.214325,91.709412 
	C320.729248,102.278938 326.389191,110.267067 337.088959,112.748177 
	C343.842072,114.314117 351.258392,114.616531 358.126434,113.668556 
	C365.964111,112.586739 372.558472,108.131775 376.651093,100.836388 
	C382.326508,90.719498 381.906494,71.117447 369.910492,62.386066 
M494.364929,57.995651 
	C481.596161,54.403805 466.255890,56.513069 457.768219,67.777878 
	C451.444916,76.170197 449.975342,94.492325 459.062500,105.078308 
	C466.755554,114.040260 482.148682,116.904297 497.317657,112.815224 
	C506.238525,110.410431 511.767639,104.114632 511.754150,97.486084 
	C504.974762,95.668640 498.214294,93.856262 491.453857,92.043892 
	C491.613220,92.543068 491.772583,93.042252 491.931946,93.541428 
	C489.172974,94.693489 486.390350,96.769508 483.662628,96.699760 
	C481.551910,96.645790 479.509949,93.905807 477.437408,92.359909 
	C477.710968,91.845810 477.984497,91.331711 478.258026,90.817612 
	C489.805817,90.817612 501.353577,90.817612 512.833069,90.817612 
	C515.023682,69.357346 505.858643,61.789825 494.364929,57.995651 
M542.000000,68.443207 
	C542.000000,70.552170 542.000000,72.661140 542.000000,75.134064 
	C544.582947,75.134064 546.654541,75.134064 549.093750,75.134064 
	C549.093750,87.897446 549.093750,100.293381 549.093750,112.774597 
	C558.203979,112.774597 566.931702,112.774597 576.035034,112.774597 
	C576.035034,100.160797 576.035034,87.765480 576.035034,74.987686 
	C580.806580,74.987686 585.219299,74.987686 589.803955,74.987686 
	C589.803955,69.197830 589.803955,63.798885 589.803955,58.056488 
	C584.520874,58.056488 579.418701,58.056488 574.408508,58.056488 
	C573.003052,52.155785 577.580627,49.279079 588.719910,51.935696 
	C589.212646,46.734150 589.702026,41.568645 590.178772,36.536434 
	C582.473022,33.847691 575.258423,32.497974 567.451050,33.864178 
	C559.983154,35.170986 551.606140,41.660072 550.097900,48.842628 
	C549.476562,51.801517 549.251404,54.843613 548.802612,58.169922 
	C546.371216,58.169922 544.299988,58.169922 542.000000,58.169922 
	C542.000000,61.525558 542.000000,64.498138 542.000000,68.443207 
M674.458069,58.000000 
	C669.366821,58.000000 664.275635,58.000000 659.284180,58.000000 
	C659.284180,76.658463 659.284180,94.718613 659.284180,112.720154 
	C667.971863,112.720154 676.372559,112.720154 685.000000,112.720154 
	C685.000000,104.307312 684.982666,96.172173 685.005798,88.037140 
	C685.022400,82.202187 688.269043,78.454247 693.999268,78.061134 
	C696.841919,77.866119 699.727966,78.302788 702.882019,78.468819 
	C703.562195,73.465172 704.360413,68.191872 704.974731,62.897236 
	C705.535767,58.061749 702.765442,55.175873 698.192505,56.097008 
	C695.414917,56.656490 692.339417,57.426090 690.215576,59.124195 
	C687.413330,61.364731 685.412964,64.608284 682.724487,67.832413 
	C682.724487,64.334084 682.724487,61.247307 682.724487,58.000000 
	C680.068054,58.000000 677.753662,58.000000 674.458069,58.000000 
z"/>
<path fill="#896FBC" opacity="1.000000" stroke="none" 
	d="
M136.004044,34.000000 
	C141.469574,34.000000 146.437592,34.000000 151.924728,34.000000 
	C151.924728,39.053951 151.924728,43.789764 151.924728,48.752426 
	C156.711594,48.752426 160.982925,48.752426 165.781403,48.752426 
	C165.781403,44.091667 165.781403,39.362984 165.781403,34.320404 
	C176.352386,34.320404 186.403488,34.320404 196.805847,34.320404 
	C196.805847,38.996391 196.805847,43.602348 196.805847,48.732265 
	C201.858826,48.732265 206.588409,48.732265 211.656616,48.732265 
	C211.656616,59.300846 211.656616,69.352356 211.656616,79.934174 
	C206.934296,79.934174 202.197678,79.934174 197.136932,79.934174 
	C197.136932,85.053398 197.136932,89.662445 197.136932,94.790985 
	C192.081497,94.790985 187.353027,94.790985 182.105942,94.790985 
	C182.105942,100.023987 182.105942,104.758575 182.105942,109.821739 
	C176.987656,109.821739 172.380676,109.821739 167.251282,109.821739 
	C167.251282,114.543549 167.251282,118.937813 167.251282,123.664780 
	C161.679901,123.664780 156.625824,123.664780 151.042877,123.664780 
	C151.042877,119.247040 151.042877,114.842354 151.042877,110.114967 
	C146.258377,110.114967 141.982376,110.114967 137.186920,110.114967 
	C137.186920,105.057892 137.186920,100.328751 137.186920,95.083458 
	C131.617386,95.083458 126.550728,95.083458 121.155945,95.083458 
	C121.155945,89.966957 121.155945,85.357880 121.155945,80.227707 
	C116.433533,80.227707 112.036942,80.227707 107.325287,80.227707 
	C107.325287,69.655701 107.325287,59.604458 107.325287,49.201496 
	C111.989517,49.201496 116.595398,49.201496 121.725967,49.201496 
	C121.725967,44.148643 121.725967,39.419098 121.725967,34.000000 
	C126.659546,34.000000 131.083038,34.000000 136.004044,34.000000 
z"/>
<path fill="#FFFFFF" opacity="1.000000" stroke="none" 
	d="
M422.961853,104.923332 
	C419.222321,109.301819 415.635376,113.733688 408.598755,114.144943 
	C398.681458,114.724556 390.873749,112.323608 386.969635,101.607109 
	C382.440491,89.174950 382.824921,77.069267 389.234222,65.164818 
	C394.694092,55.023849 413.212463,52.439674 421.016846,65.109222 
	C421.016846,55.126019 421.016846,45.754547 421.016846,36.197021 
	C429.799988,36.197021 438.200256,36.197021 446.800262,36.197021 
	C446.800262,61.784473 446.800262,87.175110 446.800262,112.782974 
	C438.901672,112.782974 431.161285,112.782974 422.995331,112.782974 
	C422.995331,110.217384 422.995331,107.773239 422.961853,104.923332 
M412.338226,93.862473 
	C416.284668,97.173195 418.864655,96.885277 419.723633,92.234688 
	C420.544525,87.790146 420.118896,83.028984 419.603912,78.479103 
	C419.458069,77.190346 416.835602,75.027237 415.780273,75.255905 
	C414.021454,75.636993 411.364777,77.549294 411.280731,78.948662 
	C410.999359,83.633759 411.689728,88.377213 412.338226,93.862473 
z"/>
<path fill="#FFFFFF" opacity="1.000000" stroke="none" 
	d="
M313.317627,98.212997 
	C308.837158,107.456902 301.313416,112.435188 291.996155,113.804131 
	C281.601074,115.331429 271.107849,115.092781 261.384308,109.806641 
	C250.697464,103.996826 245.793488,94.564102 245.146103,82.979309 
	C244.764420,76.149261 244.593185,68.867950 246.507477,62.438732 
	C250.761154,48.152706 260.555969,40.978695 275.038757,39.206440 
	C285.359680,37.943470 295.942596,38.627640 305.007294,45.051071 
	C307.409027,46.752979 309.755127,48.770145 311.507996,51.106747 
	C316.855286,58.234795 315.990936,61.180023 307.865631,64.564743 
	C303.289215,66.471115 298.635254,68.192543 294.000061,69.954689 
	C293.566895,70.119362 293.016876,69.976646 292.531158,69.976646 
	C291.229340,62.435333 288.407074,59.178543 283.059601,59.000053 
	C277.621094,58.818531 273.363251,61.712158 272.499512,68.226852 
	C271.694458,74.299263 272.003723,80.747154 273.128723,86.786423 
	C274.359558,93.393623 277.259521,94.691696 284.758972,93.978798 
	C289.882507,93.491760 291.867920,90.098122 292.272980,84.438828 
	C300.306213,86.469437 308.148041,88.451653 316.416779,90.541794 
	C315.408386,93.175102 314.498016,95.552490 313.317627,98.212997 
z"/>
<path fill="#FEFEFF" opacity="1.000000" stroke="none" 
	d="
M744.225586,105.797318 
	C732.810608,94.230156 731.118958,80.171753 734.428162,65.189697 
	C738.296204,47.677525 751.732849,39.002098 768.955811,38.951881 
	C778.233459,38.924835 787.188843,39.913551 794.595947,46.045094 
	C797.359131,48.332439 799.380066,51.516495 801.881470,54.896790 
	C802.313171,55.698040 802.602966,55.894180 802.892700,56.090317 
	C802.892700,56.090317 802.986572,55.992805 802.835022,56.450050 
	C803.854065,60.276611 802.533813,61.883484 799.226868,63.098610 
	C794.009521,65.015671 789.025635,67.568146 783.555176,69.920822 
	C782.372864,69.014572 781.578247,68.039169 780.771179,66.695557 
	C780.164124,60.817089 776.463623,58.772182 771.561890,58.540352 
	C766.511841,58.301498 762.134583,60.852009 761.535278,65.615692 
	C760.606628,72.996803 760.960266,80.596474 761.459229,88.057396 
	C761.575500,89.795784 764.461975,91.348885 766.437683,93.172340 
	C774.249023,94.833389 777.657043,94.714211 780.495422,87.283890 
	C780.888916,86.253876 783.508240,85.258446 784.826965,85.534988 
	C791.488525,86.931923 798.060669,88.755081 804.664795,90.428902 
	C804.127625,92.289940 803.596863,94.128586 802.778687,96.157867 
	C799.456970,102.897354 795.006226,108.208183 788.181213,110.849846 
	C775.530273,115.746414 762.924255,115.323761 750.538757,109.663620 
	C749.097229,109.004829 747.603210,108.460968 746.133484,107.863831 
	C746.133484,107.863831 746.004883,108.000801 746.098511,107.624001 
	C745.841003,107.121864 745.489746,106.996529 745.138550,106.871193 
	C745.138550,106.871193 745.002441,106.998779 745.101807,106.651718 
	C744.875977,106.135551 744.550781,105.966431 744.225586,105.797318 
z"/>
<path fill="#FFFFFF" opacity="1.000000" stroke="none" 
	d="
M914.921204,113.120209 
	C914.510193,113.083504 914.099243,113.046799 912.981506,112.991592 
	C911.319824,109.912109 910.364929,106.851135 909.315918,103.488655 
	C904.866211,111.916199 897.539856,114.860672 888.392151,113.937355 
	C885.963196,113.692184 883.556458,113.226601 881.139526,112.862213 
	C881.139526,112.862221 881.016174,113.002495 881.080933,112.659645 
	C880.818237,112.183678 880.490845,112.050568 880.163452,111.917450 
	C879.013733,110.678383 877.864014,109.439331 876.347412,107.793755 
	C875.641357,106.909378 875.302063,106.431526 874.962769,105.953690 
	C874.308350,98.528854 873.367371,91.115265 873.075623,83.676201 
	C872.745911,75.270729 872.999573,66.842369 872.999573,58.214165 
	C881.744690,58.214165 890.128113,58.214165 899.009460,58.214165 
	C899.009460,60.175381 899.009460,62.103840 899.017578,64.948044 
	C899.024109,73.945297 898.894043,82.029610 899.069580,90.107269 
	C899.173035,94.868050 900.910950,95.840042 905.055359,93.985939 
	C906.036743,91.423874 907.767883,88.889725 907.864502,86.294716 
	C908.209473,77.030052 907.999512,67.744720 907.999512,58.235191 
	C916.717346,58.235191 925.116333,58.235191 934.005127,58.235191 
	C934.005127,60.188095 934.005127,62.122948 933.731812,64.800156 
	C933.458557,81.258949 933.458557,96.975395 933.458557,113.120209 
	C926.537354,113.120209 920.729248,113.120209 914.921204,113.120209 
z"/>
<path fill="#FFFFFF" opacity="1.000000" stroke="none" 
	d="
M636.111450,112.403442 
	C627.746216,114.550682 619.746643,115.343063 611.491272,113.089996 
	C601.378845,110.330116 594.739929,104.116295 592.197083,94.192680 
	C589.786133,84.783508 590.937134,75.734406 596.849182,67.408195 
	C601.344910,61.076626 607.760925,58.385067 614.712708,57.162270 
	C621.810425,55.913792 628.992737,56.298615 636.058289,58.886032 
	C646.215637,62.605644 652.802246,71.397728 653.058716,82.003342 
	C653.268250,90.668884 653.032288,99.144150 646.061462,105.465820 
	C643.191711,108.068329 639.636963,109.915588 636.111450,112.403442 
M626.999939,81.830109 
	C626.999817,81.330261 627.199463,80.694359 626.966858,80.352791 
	C625.525269,78.235771 623.908386,74.423027 622.496765,74.485718 
	C619.719604,74.609062 617.438904,76.995049 617.929199,80.777359 
	C618.290222,83.563011 617.660583,86.486496 618.095398,89.250526 
	C618.531555,92.022583 619.739868,94.673134 620.595520,97.332443 
	C625.795715,95.830307 627.268494,93.155220 627.024109,89.241554 
	C626.889282,87.083977 627.000000,84.911064 626.999939,81.830109 
z"/>
<path fill="#FFFFFF" opacity="1.000000" stroke="none" 
	d="
M370.157074,62.661812 
	C381.906494,71.117447 382.326508,90.719498 376.651093,100.836388 
	C372.558472,108.131775 365.964111,112.586739 358.126434,113.668556 
	C351.258392,114.616531 343.842072,114.314117 337.088959,112.748177 
	C326.389191,110.267067 320.729248,102.278938 318.214325,91.709412 
	C315.439545,80.047615 322.270844,64.002808 332.166870,60.019855 
	C345.112152,54.809631 357.753113,54.838982 370.157074,62.661812 
M352.717041,94.809723 
	C352.811462,89.199203 353.148041,83.574837 352.828278,77.988014 
	C352.749359,76.609085 350.595978,74.392105 349.287354,74.310692 
	C347.990906,74.230049 345.499573,76.252403 345.369812,77.537865 
	C344.858246,82.604958 344.552582,87.809540 345.179657,92.837242 
	C345.664459,96.724678 348.506836,98.004150 352.717041,94.809723 
z"/>
<path fill="#FEFEFF" opacity="1.000000" stroke="none" 
	d="
M812.928955,112.002258 
	C811.189575,110.067352 809.450195,108.132423 807.376465,105.667694 
	C806.714172,102.141380 806.386292,99.144875 806.389038,95.974281 
	C807.431030,90.163086 811.932190,87.796684 816.424011,85.037521 
	C824.150696,83.678261 831.448792,82.333862 840.542419,80.658722 
	C838.392883,77.534630 837.419128,74.625420 835.472351,73.641502 
	C832.580994,72.180237 830.301941,74.084839 828.888245,77.126083 
	C828.410217,78.154335 826.521118,79.122757 825.296509,79.099190 
	C821.166504,79.019691 817.045227,78.482117 812.515503,78.064774 
	C808.083984,77.946785 805.438965,76.935143 807.920227,72.160080 
	C808.408020,71.221283 808.565430,70.110771 808.934937,68.808914 
	C809.013123,68.354599 809.031677,68.170845 809.050232,67.987099 
	C814.179138,60.814499 821.112976,56.864231 829.966553,57.065384 
	C836.651306,57.217274 843.414795,57.457920 849.971924,58.623047 
	C855.902283,59.676823 860.424683,63.427105 862.884277,70.027138 
	C863.321777,78.533386 863.733704,86.290512 863.966492,94.053017 
	C864.092712,98.259979 865.476807,100.510948 870.076416,98.888428 
	C870.044678,100.646507 870.012939,102.404587 869.905884,104.922012 
	C868.353577,113.208305 867.654480,113.762978 860.563110,114.058052 
	C853.271240,114.361465 846.845337,112.602928 842.645325,107.095978 
	C838.608215,109.272614 835.160278,112.441559 831.407898,112.856377 
	C825.353760,113.525650 819.098999,112.380814 812.928955,112.002258 
M831.773865,92.147964 
	C831.671021,94.244705 831.112366,96.484062 831.700745,98.364540 
	C831.921021,99.068619 835.938171,99.635246 836.290710,99.066368 
	C837.852051,96.546799 838.710693,93.591690 839.823547,90.794174 
	C839.339722,90.470642 838.855835,90.147110 838.371948,89.823578 
	C836.370483,90.438187 834.369019,91.052795 831.773865,92.147964 
z"/>
<path fill="#FFFFFF" opacity="1.000000" stroke="none" 
	d="
M494.785522,57.998253 
	C505.858643,61.789825 515.023682,69.357346 512.833069,90.817612 
	C501.353577,90.817612 489.805817,90.817612 478.258026,90.817612 
	C477.984497,91.331711 477.710968,91.845810 477.437408,92.359909 
	C479.509949,93.905807 481.551910,96.645790 483.662628,96.699760 
	C486.390350,96.769508 489.172974,94.693489 491.931946,93.541428 
	C491.772583,93.042252 491.613220,92.543068 491.453857,92.043892 
	C498.214294,93.856262 504.974762,95.668640 511.754150,97.486084 
	C511.767639,104.114632 506.238525,110.410431 497.317657,112.815224 
	C482.148682,116.904297 466.755554,114.040260 459.062500,105.078308 
	C449.975342,94.492325 451.444916,76.170197 457.768219,67.777878 
	C466.255890,56.513069 481.596161,54.403805 494.785522,57.998253 
M483.432373,81.000000 
	C485.088318,81.000000 486.744232,81.000000 488.675110,81.000000 
	C487.644714,78.000839 488.524017,73.978241 483.619232,74.003830 
	C479.181610,74.026978 478.748505,77.376198 477.801910,81.000000 
	C479.634674,81.000000 481.089691,81.000000 483.432373,81.000000 
z"/>
<path fill="#FFFFFF" opacity="1.000000" stroke="none" 
	d="
M542.000000,67.956963 
	C542.000000,64.498138 542.000000,61.525558 542.000000,58.169922 
	C544.299988,58.169922 546.371216,58.169922 548.802612,58.169922 
	C549.251404,54.843613 549.476562,51.801517 550.097900,48.842628 
	C551.606140,41.660072 559.983154,35.170986 567.451050,33.864178 
	C575.258423,32.497974 582.473022,33.847691 590.178772,36.536434 
	C589.702026,41.568645 589.212646,46.734150 588.719910,51.935696 
	C577.580627,49.279079 573.003052,52.155785 574.408508,58.056488 
	C579.418701,58.056488 584.520874,58.056488 589.803955,58.056488 
	C589.803955,63.798885 589.803955,69.197830 589.803955,74.987686 
	C585.219299,74.987686 580.806580,74.987686 576.035034,74.987686 
	C576.035034,87.765480 576.035034,100.160797 576.035034,112.774597 
	C566.931702,112.774597 558.203979,112.774597 549.093750,112.774597 
	C549.093750,100.293381 549.093750,87.897446 549.093750,75.134064 
	C546.654541,75.134064 544.582947,75.134064 542.000000,75.134064 
	C542.000000,72.661140 542.000000,70.552170 542.000000,67.956963 
z"/>
<path fill="#FEFEFF" opacity="1.000000" stroke="none" 
	d="
M1006.929199,107.172760 
	C1005.190491,105.175705 1003.451782,103.178665 1001.361572,100.697945 
	C999.966492,96.781036 998.922913,93.347801 997.934753,89.466476 
	C998.288635,84.709023 998.587097,80.399651 999.021912,75.758987 
	C999.733398,73.922905 1000.308594,72.418121 1000.883728,70.913338 
	C1006.944092,60.042503 1017.333435,56.257137 1028.590576,56.275463 
	C1039.487671,56.293201 1050.069092,59.154305 1055.927246,70.871078 
	C1056.319702,71.682976 1056.597778,71.888245 1056.875854,72.093529 
	C1056.875854,72.093552 1057.000000,72.007477 1056.859131,72.477402 
	C1057.312500,78.468887 1057.906616,83.990463 1058.572510,90.178383 
	C1051.790283,90.178383 1046.178833,90.178383 1040.567383,90.178383 
	C1034.822144,90.178383 1029.076782,90.178383 1023.263306,90.178383 
	C1024.072510,96.638725 1030.433350,99.968048 1034.364868,95.955536 
	C1037.996216,92.249496 1040.913818,93.684959 1044.477295,94.649551 
	C1048.963501,95.863876 1053.491089,96.926079 1058.000732,98.053925 
	C1057.397217,99.462044 1056.793701,100.870163 1055.804443,102.755112 
	C1049.379028,110.767998 1041.124756,113.328308 1031.886108,114.073982 
	C1023.369324,114.761398 1015.787170,111.739502 1008.117126,108.860779 
	C1008.117126,108.860779 1008.012573,108.991089 1008.146545,108.634377 
	C1007.830078,107.909363 1007.379639,107.541061 1006.929199,107.172760 
M1033.025757,75.551979 
	C1030.623657,75.164268 1027.893677,73.913849 1025.923218,74.662384 
	C1024.352905,75.258934 1023.709106,78.294075 1022.373291,80.766068 
	C1026.969482,80.766068 1030.368652,80.766068 1034.316284,80.766068 
	C1033.988525,79.051331 1033.724243,77.668243 1033.025757,75.551979 
z"/>
<path fill="#FEFEFE" opacity="1.000000" stroke="none" 
	d="
M946.197449,88.833954 
	C936.673523,83.339500 938.762451,67.738670 945.778320,63.034229 
	C951.196655,59.400993 957.012695,57.428295 963.703979,56.794117 
	C972.438110,55.966309 980.630859,57.248997 988.703857,60.078438 
	C991.067932,60.907021 993.191467,62.500282 995.283386,63.948017 
	C995.622009,64.182365 995.217407,65.490608 994.701660,66.768967 
	C991.784790,70.508759 989.322632,73.781990 986.919800,76.976440 
	C975.524963,71.466835 969.247925,70.668327 964.979309,74.681282 
	C974.388062,78.307159 985.145691,77.136002 993.054688,84.404373 
	C993.821228,86.128128 994.481445,87.525574 995.143066,89.323288 
	C996.975281,98.537834 993.761169,106.345886 985.745972,110.096771 
	C981.350037,112.153915 976.203430,113.952988 971.501648,113.720367 
	C962.675842,113.283714 953.927246,111.287712 945.146545,109.940201 
	C943.336182,108.688263 941.525757,107.436317 939.367920,105.760231 
	C939.030762,104.888260 939.041077,104.440437 939.051392,103.992615 
	C941.644409,100.233360 944.237427,96.474106 947.313599,92.478745 
	C957.215027,99.258316 966.695679,101.051048 970.313843,95.805412 
	C966.135071,94.859108 962.156738,94.154350 958.300171,93.031311 
	C954.205688,91.839005 950.226807,90.249809 946.197449,88.833954 
z"/>
<path fill="#FFFFFF" opacity="1.000000" stroke="none" 
	d="
M674.948608,58.000000 
	C677.753662,58.000000 680.068054,58.000000 682.724487,58.000000 
	C682.724487,61.247307 682.724487,64.334084 682.724487,67.832413 
	C685.412964,64.608284 687.413330,61.364731 690.215576,59.124195 
	C692.339417,57.426090 695.414917,56.656490 698.192505,56.097008 
	C702.765442,55.175873 705.535767,58.061749 704.974731,62.897236 
	C704.360413,68.191872 703.562195,73.465172 702.882019,78.468819 
	C699.727966,78.302788 696.841919,77.866119 693.999268,78.061134 
	C688.269043,78.454247 685.022400,82.202187 685.005798,88.037140 
	C684.982666,96.172173 685.000000,104.307312 685.000000,112.720154 
	C676.372559,112.720154 667.971863,112.720154 659.284180,112.720154 
	C659.284180,94.718613 659.284180,76.658463 659.284180,58.000000 
	C664.275635,58.000000 669.366821,58.000000 674.948608,58.000000 
z"/>
<path fill="#8B71BD" opacity="1.000000" stroke="none" 
	d="
M945.014648,110.268036 
	C953.927246,111.287712 962.675842,113.283714 971.501648,113.720367 
	C976.203430,113.952988 981.350037,112.153915 985.745972,110.096771 
	C993.761169,106.345886 996.975281,98.537834 995.442139,89.353363 
	C996.453125,89.293617 997.166260,89.604065 997.879395,89.914543 
	C998.922913,93.347801 999.966492,96.781036 1001.030334,100.613541 
	C1001.609741,113.077942 993.355530,118.874130 982.742676,120.727356 
	C970.613098,122.845436 958.433105,121.723518 947.426331,115.080765 
	C945.740601,114.063400 943.095337,113.585175 945.014648,110.268036 
z"/>
<path fill="#8B72BD" opacity="1.000000" stroke="none" 
	d="
M806.058350,96.148361 
	C806.386292,99.144875 806.714172,102.141380 807.048462,105.574837 
	C801.364746,115.598503 793.023865,120.240837 781.820923,121.149529 
	C770.550781,122.063690 760.190430,120.512581 750.912537,113.905823 
	C748.996765,112.541603 747.648499,110.380333 746.086060,108.225128 
	C747.603210,108.460968 749.097229,109.004829 750.538757,109.663620 
	C762.924255,115.323761 775.530273,115.746414 788.181213,110.849846 
	C795.006226,108.208183 799.456970,102.897354 803.154175,96.174751 
	C804.564148,96.050125 805.311218,96.099243 806.058350,96.148361 
z"/>
<path fill="#8B71BD" opacity="1.000000" stroke="none" 
	d="
M812.968628,112.367722 
	C819.098999,112.380814 825.353760,113.525650 831.407898,112.856377 
	C835.160278,112.441559 838.608215,109.272614 842.645325,107.095978 
	C846.845337,112.602928 853.271240,114.361465 860.563110,114.058052 
	C867.654480,113.762978 868.353577,113.208305 869.948181,105.301208 
	C871.449768,105.279793 872.833740,105.638512 874.590210,105.975456 
	C875.302063,106.431526 875.641357,106.909378 876.015625,107.699692 
	C875.703064,109.928436 875.229187,111.832664 875.044739,113.764519 
	C874.872620,115.567490 875.007935,117.399811 875.007935,119.132622 
	C864.756836,123.741348 851.599731,121.629410 847.540039,113.340637 
	C841.274414,124.752075 815.880249,124.056496 812.968628,112.367722 
z"/>
<path fill="#8E75BF" opacity="1.000000" stroke="none" 
	d="
M939.023804,103.524773 
	C939.041077,104.440437 939.030762,104.888260 939.035889,105.671738 
	C939.051331,110.455345 939.051331,114.903297 939.051331,119.957726 
	C931.653381,119.957726 924.586975,120.198906 917.548279,119.862350 
	C913.664368,119.676651 915.449402,116.132011 914.959351,113.543198 
	C920.729248,113.120209 926.537354,113.120209 933.458557,113.120209 
	C933.458557,96.975395 933.458557,81.258949 933.762329,65.251236 
	C935.546326,64.959961 937.026489,64.959961 938.996277,64.959961 
	C938.996277,77.858582 938.996277,90.457764 939.023804,103.524773 
z"/>
<path fill="#8B72BD" opacity="1.000000" stroke="none" 
	d="
M1008.138550,109.214478 
	C1015.787170,111.739502 1023.369324,114.761398 1031.886108,114.073982 
	C1041.124756,113.328308 1049.379028,110.767998 1055.727051,103.092148 
	C1058.326904,103.554375 1060.618530,104.156395 1063.006958,104.783821 
	C1060.854614,115.709526 1052.463867,118.957855 1044.157349,120.622353 
	C1033.365234,122.784935 1022.376099,122.166763 1013.026184,114.941200 
	C1011.144043,113.486702 1009.768860,111.376205 1008.138550,109.214478 
z"/>
<path fill="#9078C0" opacity="1.000000" stroke="none" 
	d="
M1058.444336,98.022362 
	C1053.491089,96.926079 1048.963501,95.863876 1044.477295,94.649551 
	C1040.913818,93.684959 1037.996216,92.249496 1034.364868,95.955536 
	C1030.433350,99.968048 1024.072510,96.638725 1023.263306,90.178383 
	C1029.076782,90.178383 1034.822144,90.178383 1040.567383,90.178383 
	C1046.178833,90.178383 1051.790283,90.178383 1058.572510,90.178383 
	C1057.906616,83.990463 1057.312500,78.468887 1056.798828,72.523941 
	C1062.038208,75.505989 1063.008667,81.083054 1063.868896,86.475868 
	C1064.435913,90.029922 1063.976196,93.747765 1063.976196,97.990784 
	C1062.076416,97.990784 1060.482178,97.990784 1058.444336,98.022362 
z"/>
<path fill="#8B72BD" opacity="1.000000" stroke="none" 
	d="
M881.090332,113.224243 
	C883.556458,113.226601 885.963196,113.692184 888.392151,113.937355 
	C897.539856,114.860672 904.866211,111.916199 909.315918,103.488655 
	C910.364929,106.851135 911.319824,109.912109 912.676147,113.048981 
	C910.205750,120.175751 903.466919,121.451416 897.471252,121.663551 
	C891.199951,121.885437 884.321228,120.695610 881.090332,113.224243 
z"/>
<path fill="#8B71BD" opacity="1.000000" stroke="none" 
	d="
M809.025513,67.596336 
	C809.031677,68.170845 809.013123,68.354599 808.566284,68.785744 
	C801.023193,71.823288 793.908447,74.613457 787.197144,77.245399 
	C785.932251,74.371521 784.937561,72.111588 783.942932,69.851669 
	C789.025635,67.568146 794.009521,65.015671 799.226868,63.098610 
	C802.533813,61.883484 803.854065,60.276611 802.783813,56.495979 
	C804.923035,59.791634 806.961914,63.498604 809.025513,67.596336 
z"/>
<path fill="#8E76BF" opacity="1.000000" stroke="none" 
	d="
M992.948486,84.078056 
	C985.145691,77.136002 974.388062,78.307159 964.979309,74.681282 
	C969.247925,70.668327 975.524963,71.466835 986.919800,76.976440 
	C989.322632,73.781990 991.784790,70.508759 994.546265,67.091377 
	C996.643433,68.209129 998.441162,69.471031 1000.561279,70.823135 
	C1000.308594,72.418121 999.733398,73.922905 998.703735,75.873642 
	C996.482239,78.905739 994.715332,81.491890 992.948486,84.078056 
z"/>
<path fill="#8A70BD" opacity="1.000000" stroke="none" 
	d="
M905.030884,93.518341 
	C900.910950,95.840042 899.173035,94.868050 899.069580,90.107269 
	C898.894043,82.029610 899.024109,73.945297 899.077026,65.394409 
	C900.925476,64.925041 902.722717,64.925041 905.006409,64.925041 
	C905.006409,74.559937 905.006409,83.805344 905.030884,93.518341 
z"/>
<path fill="#8B71BD" opacity="1.000000" stroke="none" 
	d="
M870.042603,98.428925 
	C865.476807,100.510948 864.092712,98.259979 863.966492,94.053017 
	C863.733704,86.290512 863.321777,78.533386 863.033264,70.349503 
	C868.240967,73.504341 869.586609,78.938042 869.941772,84.679695 
	C870.214783,89.094101 870.004211,93.538406 870.042603,98.428925 
z"/>
<path fill="#9179C1" opacity="1.000000" stroke="none" 
	d="
M946.183472,89.185951 
	C950.226807,90.249809 954.205688,91.839005 958.300171,93.031311 
	C962.156738,94.154350 966.135071,94.859108 970.313843,95.805412 
	C966.695679,101.051048 957.215027,99.258316 947.473145,92.161957 
	C946.822815,91.233498 946.496094,90.385719 946.183472,89.185951 
z"/>
<path fill="#8B72BD" opacity="1.000000" stroke="none" 
	d="
M1006.944092,107.486816 
	C1007.379639,107.541061 1007.830078,107.909363 1008.208740,108.578537 
	C1007.744324,108.519890 1007.351746,108.160370 1006.944092,107.486816 
z"/>
<path fill="#9078C0" opacity="1.000000" stroke="none" 
	d="
M1056.899780,71.824501 
	C1056.597778,71.888245 1056.319702,71.682976 1056.070312,71.193695 
	C1056.373901,71.124954 1056.648804,71.340225 1056.899780,71.824501 
z"/>
<path fill="#8B71BD" opacity="1.000000" stroke="none" 
	d="
M802.909058,55.814407 
	C802.602966,55.894180 802.313171,55.698040 802.038330,55.213173 
	C802.343933,55.129128 802.634705,55.333813 802.909058,55.814407 
z"/>
<path fill="#8B72BD" opacity="1.000000" stroke="none" 
	d="
M744.169067,106.101654 
	C744.550781,105.966431 744.875977,106.135551 745.166626,106.584785 
	C744.792236,106.711937 744.452393,106.558968 744.169067,106.101654 
z"/>
<path fill="#8B72BD" opacity="1.000000" stroke="none" 
	d="
M745.123169,107.170265 
	C745.489746,106.996529 745.841003,107.121864 746.160889,107.555084 
	C745.789001,107.731758 745.448364,107.600548 745.123169,107.170265 
z"/>
<path fill="#8B72BD" opacity="1.000000" stroke="none" 
	d="
M880.143311,112.208359 
	C880.490845,112.050568 880.818237,112.183678 881.137085,112.585617 
	C880.793396,112.736053 880.458313,112.617653 880.143311,112.208359 
z"/>
<path fill="#000000" opacity="1.000000" stroke="none" 
	d="
M412.173096,93.480392 
	C411.689728,88.377213 410.999359,83.633759 411.280731,78.948662 
	C411.364777,77.549294 414.021454,75.636993 415.780273,75.255905 
	C416.835602,75.027237 419.458069,77.190346 419.603912,78.479103 
	C420.118896,83.028984 420.544525,87.790146 419.723633,92.234688 
	C418.864655,96.885277 416.284668,97.173195 412.173096,93.480392 
z"/>
<path fill="#000000" opacity="1.000000" stroke="none" 
	d="
M783.555176,69.920822 
	C784.937561,72.111588 785.932251,74.371521 787.197144,77.245399 
	C793.908447,74.613457 801.023193,71.823288 808.506653,69.056290 
	C808.565430,70.110771 808.408020,71.221283 807.920227,72.160080 
	C805.438965,76.935143 808.083984,77.946785 812.553589,78.445999 
	C812.113037,81.854187 811.255615,84.813423 815.995483,85.052383 
	C811.932190,87.796684 807.431030,90.163086 806.389038,95.974281 
	C805.311218,96.099243 804.564148,96.050125 803.441528,95.984116 
	C803.596863,94.128586 804.127625,92.289940 804.664795,90.428902 
	C798.060669,88.755081 791.488525,86.931923 784.826965,85.534988 
	C783.508240,85.258446 780.888916,86.253876 780.495422,87.283890 
	C777.657043,94.714211 774.249023,94.833389 766.402283,92.705406 
	C765.999756,87.251419 765.658569,82.420639 766.065247,77.653671 
	C766.853455,68.415565 773.455750,63.460732 780.783630,67.063759 
	C781.578247,68.039169 782.372864,69.014572 783.555176,69.920822 
z"/>
<path fill="#8C73BE" opacity="1.000000" stroke="none" 
	d="
M780.771179,66.695557 
	C773.455750,63.460732 766.853455,68.415565 766.065247,77.653671 
	C765.658569,82.420639 765.999756,87.251419 766.038452,92.520294 
	C764.461975,91.348885 761.575500,89.795784 761.459229,88.057396 
	C760.960266,80.596474 760.606628,72.996803 761.535278,65.615692 
	C762.134583,60.852009 766.511841,58.301498 771.561890,58.540352 
	C776.463623,58.772182 780.164124,60.817089 780.771179,66.695557 
z"/>
<path fill="#000000" opacity="1.000000" stroke="none" 
	d="
M627.000000,82.287590 
	C627.000000,84.911064 626.889282,87.083977 627.024109,89.241554 
	C627.268494,93.155220 625.795715,95.830307 620.595520,97.332443 
	C619.739868,94.673134 618.531555,92.022583 618.095398,89.250526 
	C617.660583,86.486496 618.290222,83.563011 617.929199,80.777359 
	C617.438904,76.995049 619.719604,74.609062 622.496765,74.485718 
	C623.908386,74.423027 625.525269,78.235771 626.966858,80.352791 
	C627.199463,80.694359 626.999817,81.330261 627.000000,82.287590 
z"/>
<path fill="#000000" opacity="1.000000" stroke="none" 
	d="
M352.405945,95.082016 
	C348.506836,98.004150 345.664459,96.724678 345.179657,92.837242 
	C344.552582,87.809540 344.858246,82.604958 345.369812,77.537865 
	C345.499573,76.252403 347.990906,74.230049 349.287354,74.310692 
	C350.595978,74.392105 352.749359,76.609085 352.828278,77.988014 
	C353.148041,83.574837 352.811462,89.199203 352.405945,95.082016 
z"/>
<path fill="#8E76BF" opacity="1.000000" stroke="none" 
	d="
M816.424011,85.037521 
	C811.255615,84.813423 812.113037,81.854187 812.958740,78.500946 
	C817.045227,78.482117 821.166504,79.019691 825.296509,79.099190 
	C826.521118,79.122757 828.410217,78.154335 828.888245,77.126083 
	C830.301941,74.084839 832.580994,72.180237 835.472351,73.641502 
	C837.419128,74.625420 838.392883,77.534630 840.542419,80.658722 
	C831.448792,82.333862 824.150696,83.678261 816.424011,85.037521 
z"/>
<path fill="#9179C1" opacity="1.000000" stroke="none" 
	d="
M832.070679,91.907684 
	C834.369019,91.052795 836.370483,90.438187 838.371948,89.823578 
	C838.855835,90.147110 839.339722,90.470642 839.823547,90.794174 
	C838.710693,93.591690 837.852051,96.546799 836.290710,99.066368 
	C835.938171,99.635246 831.921021,99.068619 831.700745,98.364540 
	C831.112366,96.484062 831.671021,94.244705 832.070679,91.907684 
z"/>
<path fill="#000000" opacity="1.000000" stroke="none" 
	d="
M482.988556,81.000000 
	C481.089691,81.000000 479.634674,81.000000 477.801910,81.000000 
	C478.748505,77.376198 479.181610,74.026978 483.619232,74.003830 
	C488.524017,73.978241 487.644714,78.000839 488.675110,81.000000 
	C486.744232,81.000000 485.088318,81.000000 482.988556,81.000000 
z"/>
<path fill="#8C72BE" opacity="1.000000" stroke="none" 
	d="
M1033.242798,75.918564 
	C1033.724243,77.668243 1033.988525,79.051331 1034.316284,80.766068 
	C1030.368652,80.766068 1026.969482,80.766068 1022.373291,80.766068 
	C1023.709106,78.294075 1024.352905,75.258934 1025.923218,74.662384 
	C1027.893677,73.913849 1030.623657,75.164268 1033.242798,75.918564 
z"/>
<path fill="#000000" opacity="1.000000" stroke="none" 
	d="
M993.054688,84.404358 
	C994.715332,81.491890 996.482239,78.905739 998.567383,76.204933 
	C998.587097,80.399651 998.288635,84.709023 997.934814,89.466461 
	C997.166260,89.604065 996.453125,89.293617 995.440857,88.953094 
	C994.481445,87.525574 993.821228,86.128128 993.054688,84.404358 
z"/>
</svg>