<svg width="128" height="128" viewBox="0 0 128 128" fill="none" xmlns="http://www.w3.org/2000/svg">
<rect width="128" height="128" rx="64" fill="#FF9E9E"/>
<g clip-path="url(#clip0_72_59)">
<path fill-rule="evenodd" clip-rule="evenodd" d="M63.9999 21.6906L64.9999 22.268L85.7845 34.268L86.7845 34.8453V36V60V61.1547L85.7845 61.7321L64.9999 73.7321L63.9999 74.3094L62.9999 73.7321L42.2153 61.7321L41.2153 61.1547V60V36V34.8453L42.2153 34.268L62.9999 22.268L63.9999 21.6906ZM46.6794 38L53.6076 50L60.5358 38H46.6794ZM63.9999 40L57.0717 52H70.9281L63.9999 40ZM70.9281 56H57.0717L63.9999 68L70.9281 56ZM58.5358 66.5359L52.8756 56.7321L47.2153 60L58.5358 66.5359ZM45.2153 56.5359V43.4641L50.8756 53.268L45.2153 56.5359ZM69.464 66.5359L80.7845 60L75.1243 56.7321L69.464 66.5359ZM77.1243 53.268L82.7845 56.5359V43.4641L77.1243 53.268ZM77.3204 34L65.9999 27.4641V34H77.3204ZM67.464 38L74.3922 50L81.3204 38H67.464ZM61.9999 34V27.4641L50.6794 34H61.9999Z" fill="#45003A"/>
<rect x="4" y="84" width="120" height="120" rx="60" stroke="#45003A" stroke-width="8"/>
</g>
<rect x="8" y="8" width="112" height="112" rx="56" stroke="#45003A" stroke-width="8"/>
<defs>
<clipPath id="clip0_72_59">
<rect x="4" y="4" width="120" height="120" rx="60" fill="white"/>
</clipPath>
</defs>
</svg>
